<svg viewBox="0 0 105 105" fill="none" xmlns="http://www.w3.org/2000/svg"><circle cx="53" cy="53" r="45.54" fill="#EEE"/><path d="M47.75 11.748H14.373a2.625 2.625 0 0 0-2.624 2.626V47.75a2.625 2.625 0 0 0 2.624 2.625H47.75a2.625 2.625 0 0 0 2.625-2.625V14.373a2.625 2.625 0 0 0-2.625-2.624Z" fill="#fff"/><path d="M11.748 24.781V47.75a2.625 2.625 0 0 0 2.626 2.625H47.75a2.625 2.625 0 0 0 2.625-2.625V14.373a2.625 2.625 0 0 0-2.625-2.624H14.373a2.625 2.625 0 0 0-2.624 2.624v5.158" stroke="#000" stroke-width="1.969"/><rect x="55.625" y="11.748" width="38.627" height="38.627" rx="2.625" fill="#fff" stroke="#000" stroke-width="1.969"/><rect x="11.748" y="55.625" width="38.627" height="38.627" rx="2.625" fill="#fff" stroke="#000" stroke-width="1.969"/><rect x="58.25" y="58.25" width="34.689" height="34.689" rx="17.345" fill="#FFE600" stroke="#fff" stroke-width="3.938"/><path d="M93.568 68.512a19.26 19.26 0 0 0-3.952-6.2c-7.336-7.743-19.56-8.074-27.304-.738-7.743 7.335-8.074 19.56-.738 27.303 7.335 7.744 19.56 8.074 27.303.739a19.25 19.25 0 0 0 4.446-6.347m1.4-5.004c.212-1.525.242-3.071.089-4.604" stroke="#000" stroke-width="1.969"/></svg>