<svg xmlns="http://www.w3.org/2000/svg" fill="none" viewBox="0 0 105 105"><g clip-path="url(#a)"><circle cx="53" cy="52.5" r="45.54" fill="#EEE"/><ellipse cx="53.468" cy="34.904" fill="#fff" rx="25.102" ry="25.456"/><path fill="#FFE600" stroke="#fff" stroke-width="3.938" d="M70.55 35.023c0 9.445-7.544 17.055-16.79 17.055-9.248 0-16.791-7.61-16.791-17.055s7.543-17.054 16.79-17.054 16.79 7.61 16.79 17.054Z"/><path stroke="#333" stroke-width="1.5" d="M62.65 30.12c-.547-1.19-1.78-1.923-3.941-1.923-2.263 0-3.944 1.224-3.944 3.02 0 2.224 1.371 2.674 3.454 3.205l.393.103.259.07c1.676.459 3.78.903 3.965 2.688s-1.29 3.375-4.277 3.368c-2.113-.004-3.898-.958-4.218-2.464m-10.017 2.689v-12.37h4.985s2.77.538 2.77 3.227-2.77 3.227-2.77 3.227h-4.985m3.878 0 3.877 5.916m6.694-14.827v2.197m0 12.557V43"/><ellipse cx="53.468" cy="34.903" stroke="#333" stroke-width="1.969" rx="18.759" ry="19.023"/><mask id="b" fill="#fff"><rect width="50.205" height="10.001" x="32.364" y="84.882" rx="1.313"/></mask><rect width="50.205" height="10.001" x="32.364" y="84.882" fill="#fff" stroke="#fff" stroke-width="5.25" mask="url(#b)" rx="1.313"/><rect width="50.205" height="10.001" x="32.364" y="84.882" stroke="#333" stroke-width="1.969" rx="1.313"/><mask id="c" fill="#fff"><rect width="50.205" height="10.001" x="24.368" y="74.881" rx="1.313"/></mask><rect width="50.205" height="10.001" x="24.368" y="74.881" fill="#fff" stroke="#fff" stroke-width="5.25" mask="url(#c)" rx="1.313"/><rect width="50.205" height="10.001" x="24.368" y="74.881" stroke="#333" stroke-width="1.969" rx="1.313"/><mask id="d" fill="#fff"><rect width="50.205" height="10.001" x="29.698" y="64.88" rx="1.313"/></mask><rect width="50.205" height="10.001" x="29.698" y="64.88" fill="#fff" stroke="#fff" stroke-width="5.25" mask="url(#d)" rx="1.313"/><rect width="50.205" height="10.001" x="29.698" y="64.88" stroke="#333" stroke-width="1.969" rx="1.313"/><path stroke="#333" stroke-width="1.969" d="M30.914 77.217v5.33m7.548-5.329v5.33m7.548-5.33v5.33m7.548-5.33v5.33m7.548-5.33v5.33m7.548-5.33v5.33m-29.744 4.69v5.33m7.547-5.329v5.331m7.548-5.331v5.331m7.548-5.331v5.331m7.548-5.331v5.331m7.548-5.331v5.331M36.244 67.2v5.33m7.548-5.329v5.33m7.548-5.33v5.33m7.548-5.33v5.33m7.548-5.33v5.33m7.548-5.33v5.33M34.922 17.75c4.59-5.102 11.2-8.302 18.546-8.302 13.864 0 25.103 11.397 25.103 25.456A25.6 25.6 0 0 1 74 49.554m-42.37-27.21a25.6 25.6 0 0 0-3.264 12.56c0 14.059 11.238 25.456 25.102 25.456 3.224 0 6.306-.617 9.137-1.74m4.833-2.563a25 25 0 0 0 3.051-2.443"/><circle cx="74" cy="22.343" r="8.531" fill="#fff" stroke="#fff" stroke-width="3.938"/><circle cx="74" cy="22.343" r="10.5" stroke="#333" stroke-width="1.969"/><path stroke="#333" stroke-width="1.969" d="M74 16.628v10.5m0 0-3.937-3.818M74 27.128l3.938-3.818"/></g><defs><clipPath id="a"><path fill="#fff" d="M.5 0h105v105H.5z"/></clipPath></defs></svg>