<svg viewBox="0 0 105 105" fill="none" xmlns="http://www.w3.org/2000/svg"><circle cx="53" cy="53" r="45.54" fill="#EEE"/><path d="M6.118 26.803h92.455V85.69c0 .79-.608 1.33-1.235 1.33H7.353c-.628 0-1.235-.54-1.235-1.33V26.803Z" fill="#FFE600" stroke="#fff" stroke-width="3.938"/><path d="M4.15 49.063V85.69c0 1.822 1.433 3.3 3.203 3.3h89.985c1.77 0 3.204-1.478 3.204-3.3v-1.847M4.149 44.018V24.834h96.393v44.47m0 5.352v3.938" stroke="#333" stroke-width="1.969"/><path fill-rule="evenodd" clip-rule="evenodd" d="M7.353 15.594h90.003c1.77 0 3.203 1.516 3.203 3.387v5.62H4.149v-5.62c0-1.87 1.435-3.387 3.204-3.387Z" fill="#fff" stroke="#333" stroke-width="1.969"/><circle cx="11.052" cy="20.098" fill="#333" r="1.525"/><circle cx="17.891" cy="20.098" fill="#333" r="1.525"/><circle cx="24.982" cy="20.098" fill="#333" r="1.525"/><path d="M69.135 56.912c0 9.445-7.543 17.055-16.79 17.055s-16.79-7.61-16.79-17.055 7.543-17.054 16.79-17.054 16.79 7.61 16.79 17.054Z" fill="#fff" stroke="#fff" stroke-width="3.938"/><ellipse cx="52.345" cy="56.912" rx="18.759" ry="19.023" stroke="#333" stroke-width="1.969"/><path d="M44.149 66.468v-.91a4.49 4.49 0 0 1 4.49-4.491h7.389a4.514 4.514 0 0 1 4.513 4.514v.91" stroke="#333" stroke-width="1.969"/><path clip-rule="evenodd" d="M52.352 47.333a5.52 5.52 0 1 1 0 11.04 5.52 5.52 0 0 1 0-11.04Z" stroke="#333" stroke-width="1.969"/></svg>